<?xml version="1.0" standalone="no"?><!DOCTYPE svg PUBLIC "-//W3C//DTD SVG 1.1//EN" "http://www.w3.org/Graphics/SVG/1.1/DTD/svg11.dtd"><svg t="1641290882269" class="icon" viewBox="0 0 1024 1024" version="1.1" xmlns="http://www.w3.org/2000/svg" p-id="1819" xmlns:xlink="http://www.w3.org/1999/xlink" width="200" height="200"><defs><style type="text/css"></style></defs><path d="M864 896l-352 58.656L160 896a96 96 0 0 1-96-96V160a96 96 0 0 1 96-96l352 58.656L864 64a96 96 0 0 1 96 96v640a96 96 0 0 1-96 96zM128 192v576a64 64 0 0 0 64 64l288 57.6v-704L192 128a64 64 0 0 0-64 64z m768 0a64 64 0 0 0-64-64l-288 57.6v704l288-57.6a64 64 0 0 0 64-64V192z m-96 512l-160 32a32 32 0 1 1 0-64l160-32a32 32 0 0 1 0 64z m0-128l-160 32a32 32 0 1 1 0-64l160-32a32 32 0 0 1 0 64z m-416 32l-160-32a32 32 0 1 1 0-64l160 32a32 32 0 0 1 0 64z m0-128l-160-32a32 32 0 0 1-32-32V288a32 32 0 0 1 32-32l160 32a32 32 0 0 1 32 32v128a32 32 0 0 1-32 32z m-32-128l-96-32v64l96 32v-64z m-128 288l160 32a32 32 0 0 1 0 64l-160-32a32 32 0 1 1 0-64z m576-192l-160 32a32 32 0 1 1 0-64l160-32a32 32 0 0 1 0 64z m0-128l-160 32a32 32 0 1 1 0-64l160-32a32 32 0 0 1 0 64z" p-id="1820"></path></svg>